<svg width="294" height="188" viewBox="0 0 294 188" fill="none" xmlns="http://www.w3.org/2000/svg">
<mask id="path-1-outside-1_11_3" maskUnits="userSpaceOnUse" x="-1" y="-1" width="296" height="190" fill="black">
<rect fill="white" x="-1" y="-1" width="296" height="190"/>
<path d="M0.93299 188V0.363631H46.2846V75.6747H120.221V0.363631H165.481V188H120.221V112.597H46.2846V188H0.93299ZM165.549 188V0.363631H293.633V37.1946H210.901V75.6747H285.479V112.597H210.901V188H165.549Z"/>
</mask>
<path d="M0.93299 188V0.363631H46.2846V75.6747H120.221V0.363631H165.481V188H120.221V112.597H46.2846V188H0.93299ZM165.549 188V0.363631H293.633V37.1946H210.901V75.6747H285.479V112.597H210.901V188H165.549Z" fill="#FFF600"/>
<path d="M0.93299 188H-0.0670102V189H0.93299V188ZM0.93299 0.363631V-0.636369H-0.0670102V0.363631H0.93299ZM46.2846 0.363631H47.2846V-0.636369H46.2846V0.363631ZM46.2846 75.6747H45.2846V76.6747H46.2846V75.6747ZM120.221 75.6747V76.6747H121.221V75.6747H120.221ZM120.221 0.363631V-0.636369H119.221V0.363631H120.221ZM165.481 0.363631H166.481V-0.636369H165.481V0.363631ZM165.481 188V189H166.481V188H165.481ZM120.221 188H119.221V189H120.221V188ZM120.221 112.597H121.221V111.597H120.221V112.597ZM46.2846 112.597V111.597H45.2846V112.597H46.2846ZM46.2846 188V189H47.2846V188H46.2846ZM1.93299 188V0.363631H-0.0670102V188H1.93299ZM0.93299 1.36363H46.2846V-0.636369H0.93299V1.36363ZM45.2846 0.363631V75.6747H47.2846V0.363631H45.2846ZM46.2846 76.6747H120.221V74.6747H46.2846V76.6747ZM121.221 75.6747V0.363631H119.221V75.6747H121.221ZM120.221 1.36363H165.481V-0.636369H120.221V1.36363ZM164.481 0.363631V188H166.481V0.363631H164.481ZM165.481 187H120.221V189H165.481V187ZM121.221 188V112.597H119.221V188H121.221ZM120.221 111.597H46.2846V113.597H120.221V111.597ZM45.2846 112.597V188H47.2846V112.597H45.2846ZM46.2846 187H0.93299V189H46.2846V187ZM165.549 188H164.549V189H165.549V188ZM165.549 0.363631V-0.636369H164.549V0.363631H165.549ZM293.633 0.363631H294.633V-0.636369H293.633V0.363631ZM293.633 37.1946V38.1946H294.633V37.1946H293.633ZM210.901 37.1946V36.1946H209.901V37.1946H210.901ZM210.901 75.6747H209.901V76.6747H210.901V75.6747ZM285.479 75.6747H286.479V74.6747H285.479V75.6747ZM285.479 112.597V113.597H286.479V112.597H285.479ZM210.901 112.597V111.597H209.901V112.597H210.901ZM210.901 188V189H211.901V188H210.901ZM166.549 188V0.363631H164.549V188H166.549ZM165.549 1.36363H293.633V-0.636369H165.549V1.36363ZM292.633 0.363631V37.1946H294.633V0.363631H292.633ZM293.633 36.1946H210.901V38.1946H293.633V36.1946ZM209.901 37.1946V75.6747H211.901V37.1946H209.901ZM210.901 76.6747H285.479V74.6747H210.901V76.6747ZM284.479 75.6747V112.597H286.479V75.6747H284.479ZM285.479 111.597H210.901V113.597H285.479V111.597ZM209.901 112.597V188H211.901V112.597H209.901ZM210.901 187H165.549V189H210.901V187Z" fill="black" mask="url(#path-1-outside-1_11_3)"/>
</svg>
